<?xml version="1.0" standalone="no"?>
<!DOCTYPE svg PUBLIC "-//W3C//DTD SVG 20010904//EN"
 "http://www.w3.org/TR/2001/REC-SVG-20010904/DTD/svg10.dtd">
<svg version="1.0" xmlns="http://www.w3.org/2000/svg"
 width="3038.000000pt" height="1210.000000pt" viewBox="0 0 3038.000000 1210.000000"
 preserveAspectRatio="xMidYMid meet">

<g transform="translate(0.000000,1210.000000) scale(0.100000,-0.100000)"
fill="#000000" stroke="none">
<path d="M2900 11788 c0 -169 5 -341 11 -384 23 -170 98 -361 200 -511 41 -61
497 -524 2114 -2143 1134 -1136 2075 -2083 2092 -2105 50 -68 81 -129 115
-227 31 -89 33 -99 33 -248 0 -149 -2 -159 -33 -250 -18 -52 -50 -124 -72
-160 -21 -36 -258 -326 -527 -646 -542 -645 -528 -627 -572 -705 -124 -221
-130 -488 -16 -724 42 -86 125 -205 144 -205 12 0 1451 1711 1522 1811 116
161 208 379 251 592 29 148 31 413 4 557 -42 217 -138 447 -262 623 -45 63
-630 655 -2531 2557 l-2473 2475 0 -307z"/>
<path d="M6400 10408 c0 -78 29 -182 76 -277 78 -159 226 -294 385 -352 l57
-21 6 -151 c23 -501 116 -817 344 -1163 122 -185 238 -316 637 -724 342 -348
414 -440 535 -692 305 -631 252 -1376 -138 -1959 -43 -63 -702 -856 -1683
-2022 -1320 -1570 -1614 -1916 -1625 -1905 -7 7 -578 686 -1269 1508 l-1256
1495 1013 6 c1084 6 1091 6 1332 60 579 127 1103 474 1534 1015 37 47 68 88
69 92 2 4 -21 20 -50 37 -38 21 -518 494 -1759 1735 l-1708 1705 0 -307 c0
-169 5 -341 11 -384 23 -170 98 -361 200 -511 39 -57 204 -230 604 -632 357
-359 541 -551 525 -547 -14 3 -85 11 -158 17 -140 12 -330 1 -457 -25 l-60
-12 -65 54 c-79 65 -219 136 -320 163 -348 91 -825 -38 -1282 -347 -241 -164
-334 -207 -479 -223 -199 -22 -369 38 -509 179 -127 126 -183 262 -182 440 2
340 275 610 617 610 131 0 266 -44 362 -117 75 -57 210 -81 308 -54 65 17 147
72 187 126 52 68 73 134 73 225 -1 141 -71 245 -233 343 -397 240 -872 261
-1287 58 -363 -178 -612 -489 -711 -885 -35 -141 -44 -379 -19 -527 83 -497
424 -897 898 -1054 139 -45 265 -65 422 -65 319 0 563 86 935 330 167 110 325
198 335 188 2 -2 -36 -57 -84 -121 -179 -239 -286 -488 -331 -769 l-13 -78
-628 0 c-346 0 -629 -2 -629 -5 0 -4 4022 -4797 4064 -4843 9 -9 423 477 1871
2200 1023 1216 1888 2248 1923 2292 295 372 491 851 553 1351 18 147 16 493
-5 645 -70 517 -273 987 -595 1375 -42 50 -206 223 -366 386 -382 389 -491
519 -582 695 -94 182 -141 369 -150 607 l-6 157 236 0 c202 0 244 -3 296 -19
107 -33 182 -103 232 -216 19 -44 23 -76 30 -255 10 -276 32 -378 118 -545 85
-168 286 -340 536 -460 100 -48 255 -110 260 -103 19 29 204 503 198 509 -4 4
-102 44 -216 89 -141 56 -220 92 -244 114 -120 105 -87 309 59 370 74 32 120
23 352 -69 118 -47 219 -85 224 -85 5 0 71 150 147 333 l137 332 -10 64 c-29
172 -163 318 -400 432 -168 81 -441 158 -682 193 -226 33 -353 36 -1427 36
l-1083 0 0 -42z m-2048 -4703 c363 -48 750 -201 1009 -401 47 -36 58 -49 49
-59 -25 -30 -197 -140 -299 -191 -192 -96 -409 -154 -644 -173 -62 -5 -435 -9
-829 -10 -563 0 -718 2 -718 12 0 32 45 170 79 243 100 213 253 367 465 469
184 88 357 123 608 124 96 1 215 -5 280 -14z"/>
<path d="M2900 10138 c0 -169 5 -341 11 -384 23 -170 98 -361 200 -511 41 -61
412 -438 1683 -1711 897 -898 1651 -1646 1676 -1662 25 -15 69 -35 99 -44 159
-47 328 25 410 174 35 63 36 68 36 170 0 100 -2 108 -33 165 -27 51 -361 389
-2057 2085 l-2025 2025 0 -307z"/>
<path d="M11470 6050 l0 -1460 315 0 315 0 2 857 3 857 426 -699 425 -700 154
0 153 0 426 717 c234 394 429 717 434 718 4 0 7 -394 7 -875 l0 -875 315 0
315 0 0 858 c0 472 -3 1129 -7 1460 l-6 602 -276 0 -276 -1 -535 -904 c-294
-497 -537 -904 -540 -904 -3 0 -250 407 -549 904 l-544 905 -279 0 -278 0 0
-1460z"/>
<path d="M15440 6050 l0 -1460 1130 0 1130 0 0 270 0 270 -795 0 -795 0 0 340
0 340 680 0 680 0 -2 263 -3 262 -677 3 -678 2 0 320 0 320 770 0 770 0 0 265
0 265 -1105 0 -1105 0 0 -1460z"/>
<path d="M18380 6050 l0 -1460 335 0 335 0 2 408 3 407 312 3 312 2 283 -410
283 -409 363 -1 364 0 -35 48 c-97 134 -617 884 -617 890 0 4 26 20 58 36 195
95 367 268 447 451 14 32 38 96 52 144 25 81 27 98 27 291 1 184 -2 214 -22
290 -92 337 -328 573 -695 695 -209 70 -199 69 -1044 72 l-763 4 0 -1461z
m1450 896 c266 -63 400 -228 400 -491 0 -161 -42 -268 -142 -360 -67 -62 -133
-97 -243 -126 -75 -21 -104 -22 -435 -23 l-355 -1 -3 500 c-1 275 0 506 3 513
8 23 674 12 775 -12z"/>
<path d="M21540 6050 l0 -1460 340 0 340 0 0 600 0 600 665 0 665 0 0 -600 0
-600 335 0 335 0 0 1460 0 1460 -335 0 -335 0 0 -575 0 -575 -665 0 -665 0 0
575 0 575 -340 0 -340 0 0 -1460z"/>
<path d="M26091 7483 c-7 -16 -299 -669 -648 -1453 -349 -784 -637 -1428 -640
-1433 -2 -4 152 -6 343 -5 l347 3 128 310 128 310 682 0 683 0 128 -309 c70
-170 129 -311 131 -313 2 -2 161 -2 354 -1 l350 3 -651 1457 -651 1457 -336 1
-336 0 -12 -27z m578 -1194 l229 -554 -460 -3 c-254 -1 -463 -1 -465 1 -2 2
96 244 218 538 122 294 225 545 230 558 5 13 12 22 14 19 2 -2 108 -254 234
-559z"/>
<path d="M27820 7240 l0 -270 470 0 470 0 0 -1190 0 -1190 335 0 335 0 0 1190
0 1190 470 0 470 0 0 270 0 270 -1275 0 -1275 0 0 -270z"/>
<path d="M3431 3701 c2 -5 355 -427 784 -938 l780 -928 3 645 c2 450 -1 663
-8 705 -44 231 -234 432 -475 501 -52 15 -124 18 -574 22 -342 2 -512 0 -510
-7z"/>
</g>
</svg>
